<svg width="40" height="53" viewBox="0 0 40 53" fill="none" xmlns="http://www.w3.org/2000/svg">
<path fill-rule="evenodd" clip-rule="evenodd" d="M36 18.8794L19.5648 5.25016L4 18.8195V49H36V18.8794ZM19.5 0L40 17V53H0V17L19.5 0Z" fill="black"/>
<path fill-rule="evenodd" clip-rule="evenodd" d="M20 27C21.6569 27 23 25.6569 23 24C23 22.3431 21.6569 21 20 21C18.3431 21 17 22.3431 17 24C17 25.6569 18.3431 27 20 27ZM20 31C23.866 31 27 27.866 27 24C27 20.134 23.866 17 20 17C16.134 17 13 20.134 13 24C13 27.866 16.134 31 20 31Z" fill="#FD665E"/>
</svg>
